<svg width="442" height="199" viewBox="0 0 442 199" fill="none" xmlns="http://www.w3.org/2000/svg">
<path d="M93.512 13.488C93.512 15.432 92.864 16.464 91.04 16.464C89.288 16.464 88.496 15.528 88.496 13.488V11.976H86.168V13.608C86.168 16.872 87.944 18.552 91.016 18.552C94.304 18.552 96.08 16.608 96.08 13.704V2.064H93.512V13.488ZM107.845 18V6.192H105.469V12.36C105.469 14.448 104.725 16.296 102.325 16.296C100.645 16.296 99.8773 15.384 99.8773 13.224V6.192H97.4773V13.944C97.4773 16.776 99.1573 18.312 101.581 18.312C103.285 18.312 104.821 17.568 105.589 15.72V18H107.845ZM111.76 18V1.872H109.36V18H111.76ZM121.267 18.312C121.267 20.28 120.139 21.528 118.339 21.528C116.659 21.528 115.483 20.448 115.483 18.648H113.227C113.227 21.696 115.075 23.592 118.243 23.592C121.435 23.592 123.667 21.672 123.667 18.264V6.192H121.267V13.344C121.267 15.12 120.115 16.176 118.267 16.176C116.635 16.176 115.699 15.336 115.699 13.344V6.192H113.299V13.68C113.299 16.536 115.147 18.12 117.691 18.12C119.611 18.12 120.883 17.232 121.267 16.08V18.312ZM135.988 16.584C134.068 16.584 133.132 15.36 133.132 13.488C133.132 11.736 133.948 10.56 135.988 10.56C138.028 10.56 138.892 11.736 138.892 13.488C138.892 15.36 137.908 16.584 135.988 16.584ZM135.988 8.64C134.164 8.64 133.516 7.416 133.516 6.096C133.516 4.512 134.428 3.504 135.988 3.504C137.548 3.504 138.46 4.512 138.46 6.096C138.46 7.416 137.812 8.64 135.988 8.64ZM138.532 9.36C140.092 8.88 140.668 7.248 140.668 5.808C140.668 3.336 138.964 1.536 136.108 1.536C133.252 1.536 131.308 3.336 131.308 5.88C131.308 7.296 131.908 8.952 133.54 9.48C131.74 10.032 130.612 11.448 130.612 13.608C130.612 16.392 132.508 18.552 136.012 18.552C139.54 18.552 141.364 16.368 141.364 13.584C141.364 11.4 140.26 9.864 138.532 9.36ZM149.722 13.368C149.722 15.072 148.978 16.224 147.346 16.224C145.666 16.224 144.97 15.048 144.97 13.344V7.92H151.954V6.192H144.97V3H142.594V13.56C142.594 16.104 143.938 18.312 147.298 18.312C150.562 18.312 151.954 16.08 151.954 13.584V10.224H149.722V13.368ZM163.792 18V9.84C163.792 7.176 162.04 5.88 159.76 5.88C157.816 5.88 156.28 6.816 155.776 8.4V1.872H153.376V18H155.776V11.88C155.776 9.816 156.496 7.8 159.016 7.8C160.528 7.8 161.368 8.52 161.368 10.608V18H163.792ZM181.01 18V15.912H173.378C173.522 14.352 174.674 13.32 176.378 12.12C179.354 10.032 180.962 8.856 180.962 6.144C180.962 2.976 178.778 1.536 175.898 1.536C172.49 1.536 170.642 3.552 170.642 7.08H172.946C172.97 4.704 173.834 3.6 175.85 3.6C177.626 3.6 178.61 4.44 178.61 6.192C178.61 7.944 177.602 8.688 175.298 10.296C171.218 13.152 170.474 14.928 170.426 18H181.01ZM187.129 16.608C185.257 16.608 184.249 14.784 184.249 10.008C184.249 5.256 185.257 3.48 187.129 3.48C189.001 3.48 190.009 5.28 190.009 10.008C190.009 14.76 189.001 16.608 187.129 16.608ZM187.033 18.552C190.417 18.552 192.433 15.816 192.433 9.912C192.433 3.984 190.393 1.536 187.057 1.536C183.697 1.536 181.753 3.984 181.753 9.96C181.753 15.96 183.721 18.552 187.033 18.552ZM203.674 18V15.912H196.042C196.186 14.352 197.338 13.32 199.042 12.12C202.018 10.032 203.626 8.856 203.626 6.144C203.626 2.976 201.442 1.536 198.562 1.536C195.154 1.536 193.306 3.552 193.306 7.08H195.61C195.634 4.704 196.498 3.6 198.514 3.6C200.29 3.6 201.274 4.44 201.274 6.192C201.274 7.944 200.266 8.688 197.962 10.296C193.882 13.152 193.138 14.928 193.09 18H203.674ZM214.947 18V15.912H207.315C207.459 14.352 208.611 13.32 210.315 12.12C213.291 10.032 214.899 8.856 214.899 6.144C214.899 2.976 212.715 1.536 209.835 1.536C206.427 1.536 204.579 3.552 204.579 7.08H206.883C206.907 4.704 207.771 3.6 209.787 3.6C211.563 3.6 212.547 4.44 212.547 6.192C212.547 7.944 211.539 8.688 209.235 10.296C205.155 13.152 204.411 14.928 204.363 18H214.947Z" fill="black"/>
<path opacity="0.7" d="M87.456 61V39.88H94.976C97.472 39.88 99.296 40.4027 100.448 41.448C101.6 42.4933 102.176 43.912 102.176 45.704C102.176 46.7707 101.867 47.7413 101.248 48.616C100.629 49.4693 99.7547 50.0133 98.624 50.248V50.28C99.8827 50.5147 100.875 51.0907 101.6 52.008C102.347 52.904 102.72 53.928 102.72 55.08C102.72 56.872 102.048 58.312 100.704 59.4C99.36 60.4667 97.44 61 94.944 61H87.456ZM90.016 58.6H95.552C97.0667 58.6 98.1867 58.2907 98.912 57.672C99.6587 57.0533 100.032 56.1893 100.032 55.08C100.032 53.9493 99.6587 53.0853 98.912 52.488C98.1867 51.8693 97.0667 51.56 95.552 51.56H90.016V58.6ZM90.016 49.16H95.008C97.9947 49.16 99.488 48.008 99.488 45.704C99.488 43.4213 97.9947 42.28 95.008 42.28H90.016V49.16ZM114.57 61.32C113.056 61.32 111.701 60.9893 110.506 60.328C109.333 59.6667 108.416 58.7173 107.754 57.48C107.093 56.2213 106.762 54.728 106.762 53C106.762 51.272 107.093 49.7893 107.754 48.552C108.416 47.2933 109.322 46.3333 110.474 45.672C111.626 45.0107 112.938 44.68 114.41 44.68C115.904 44.68 117.173 45 118.218 45.64C119.285 46.28 120.096 47.1547 120.65 48.264C121.205 49.352 121.482 50.5787 121.482 51.944C121.482 52.3067 121.472 52.6373 121.45 52.936C121.429 53.2347 121.397 53.5013 121.354 53.736H108.426V51.464H120.234L118.922 51.72C118.922 50.184 118.496 49 117.642 48.168C116.81 47.336 115.712 46.92 114.346 46.92C113.301 46.92 112.394 47.1653 111.626 47.656C110.88 48.1253 110.293 48.8187 109.866 49.736C109.461 50.632 109.258 51.72 109.258 53C109.258 54.2587 109.472 55.3467 109.898 56.264C110.325 57.1813 110.922 57.8853 111.69 58.376C112.48 58.8453 113.418 59.08 114.506 59.08C115.68 59.08 116.629 58.856 117.354 58.408C118.101 57.96 118.698 57.352 119.146 56.584L121.162 57.768C120.757 58.4933 120.234 59.1227 119.594 59.656C118.976 60.1893 118.24 60.6053 117.386 60.904C116.554 61.1813 115.616 61.32 114.57 61.32ZM139.823 42.056L140.399 44.328C140.378 44.328 140.346 44.328 140.303 44.328C140.26 44.328 140.218 44.328 140.175 44.328C139.13 44.328 138.319 44.5413 137.743 44.968C137.188 45.3733 136.911 46.0347 136.911 46.952L135.343 46.152C135.343 45.32 135.535 44.5947 135.919 43.976C136.303 43.3573 136.826 42.888 137.487 42.568C138.148 42.2267 138.874 42.056 139.663 42.056C139.684 42.056 139.706 42.056 139.727 42.056C139.77 42.056 139.802 42.056 139.823 42.056ZM134.959 58.952C136.474 58.952 137.658 59.304 138.511 60.008C139.364 60.6907 139.791 61.608 139.791 62.76C139.791 63.8053 139.439 64.712 138.735 65.48C138.052 66.248 137.124 66.8347 135.951 67.24C134.799 67.6667 133.498 67.88 132.047 67.88C129.53 67.88 127.642 67.4533 126.383 66.6C125.146 65.7467 124.527 64.7227 124.527 63.528C124.527 62.6747 124.804 61.9067 125.359 61.224C125.935 60.5627 126.895 60.1893 128.239 60.104L128.015 60.584C127.29 60.392 126.671 60.072 126.159 59.624C125.668 59.1547 125.423 58.4827 125.423 57.608C125.423 56.7333 125.743 55.9867 126.383 55.368C127.044 54.728 128.015 54.3333 129.295 54.184L130.991 55.048H130.671C129.626 55.1547 128.879 55.4213 128.431 55.848C128.004 56.2533 127.791 56.7013 127.791 57.192C127.791 57.7893 128.004 58.2373 128.431 58.536C128.879 58.8133 129.498 58.952 130.287 58.952H134.959ZM132.015 65.736C133.252 65.736 134.266 65.608 135.055 65.352C135.866 65.096 136.463 64.7653 136.847 64.36C137.231 63.9547 137.423 63.5173 137.423 63.048C137.423 62.472 137.188 62.0133 136.719 61.672C136.271 61.3307 135.45 61.16 134.255 61.16H129.327C128.644 61.16 128.068 61.3307 127.599 61.672C127.13 62.0347 126.895 62.5253 126.895 63.144C126.895 63.9333 127.343 64.5627 128.239 65.032C129.156 65.5013 130.415 65.736 132.015 65.736ZM131.791 44.68C133.071 44.68 134.202 44.9147 135.183 45.384C136.186 45.832 136.964 46.4613 137.519 47.272C138.074 48.0827 138.351 49.0213 138.351 50.088C138.351 51.1333 138.074 52.072 137.519 52.904C136.964 53.7147 136.186 54.3547 135.183 54.824C134.202 55.272 133.071 55.496 131.791 55.496C129.679 55.496 128.058 54.9947 126.927 53.992C125.796 52.968 125.231 51.6667 125.231 50.088C125.231 49.0213 125.508 48.0827 126.063 47.272C126.639 46.4613 127.418 45.832 128.399 45.384C129.38 44.9147 130.511 44.68 131.791 44.68ZM131.791 46.76C130.682 46.76 129.754 47.0693 129.007 47.688C128.26 48.2853 127.887 49.0853 127.887 50.088C127.887 51.0693 128.26 51.8693 129.007 52.488C129.754 53.1067 130.682 53.416 131.791 53.416C132.9 53.416 133.828 53.1067 134.575 52.488C135.322 51.8693 135.695 51.0693 135.695 50.088C135.695 49.0853 135.322 48.2853 134.575 47.688C133.828 47.0693 132.9 46.76 131.791 46.76ZM144.662 41.928C144.086 41.928 143.617 41.7573 143.254 41.416C142.913 41.0533 142.742 40.584 142.742 40.008C142.742 39.432 142.913 38.9733 143.254 38.632C143.617 38.2693 144.086 38.088 144.662 38.088C145.238 38.088 145.697 38.2693 146.038 38.632C146.401 38.9733 146.582 39.432 146.582 40.008C146.582 40.584 146.401 41.0533 146.038 41.416C145.697 41.7573 145.238 41.928 144.662 41.928ZM145.942 45V61H143.382V45H145.942ZM151.882 61V45H154.122L154.346 48.584L153.93 48.232C154.272 47.3787 154.73 46.696 155.306 46.184C155.882 45.6507 156.544 45.2667 157.29 45.032C158.058 44.7973 158.848 44.68 159.658 44.68C160.81 44.68 161.856 44.904 162.794 45.352C163.733 45.7787 164.48 46.44 165.034 47.336C165.61 48.232 165.898 49.3733 165.898 50.76V61H163.338V51.656C163.338 49.8853 162.954 48.6587 162.186 47.976C161.44 47.272 160.512 46.92 159.402 46.92C158.634 46.92 157.866 47.1013 157.098 47.464C156.33 47.8267 155.69 48.4133 155.178 49.224C154.688 50.0347 154.442 51.1227 154.442 52.488V61H151.882ZM171.695 61V45H173.935L174.159 48.584L173.743 48.232C174.084 47.3787 174.543 46.696 175.119 46.184C175.695 45.6507 176.356 45.2667 177.103 45.032C177.871 44.7973 178.66 44.68 179.471 44.68C180.623 44.68 181.668 44.904 182.607 45.352C183.545 45.7787 184.292 46.44 184.847 47.336C185.423 48.232 185.711 49.3733 185.711 50.76V61H183.151V51.656C183.151 49.8853 182.767 48.6587 181.999 47.976C181.252 47.272 180.324 46.92 179.215 46.92C178.447 46.92 177.679 47.1013 176.911 47.464C176.143 47.8267 175.503 48.4133 174.991 49.224C174.5 50.0347 174.255 51.1227 174.255 52.488V61H171.695ZM192.787 41.928C192.211 41.928 191.742 41.7573 191.379 41.416C191.038 41.0533 190.867 40.584 190.867 40.008C190.867 39.432 191.038 38.9733 191.379 38.632C191.742 38.2693 192.211 38.088 192.787 38.088C193.363 38.088 193.822 38.2693 194.163 38.632C194.526 38.9733 194.707 39.432 194.707 40.008C194.707 40.584 194.526 41.0533 194.163 41.416C193.822 41.7573 193.363 41.928 192.787 41.928ZM194.067 45V61H191.507V45H194.067ZM200.007 61V45H202.247L202.471 48.584L202.055 48.232C202.397 47.3787 202.855 46.696 203.431 46.184C204.007 45.6507 204.669 45.2667 205.415 45.032C206.183 44.7973 206.973 44.68 207.783 44.68C208.935 44.68 209.981 44.904 210.919 45.352C211.858 45.7787 212.605 46.44 213.159 47.336C213.735 48.232 214.023 49.3733 214.023 50.76V61H211.463V51.656C211.463 49.8853 211.079 48.6587 210.311 47.976C209.565 47.272 208.637 46.92 207.527 46.92C206.759 46.92 205.991 47.1013 205.223 47.464C204.455 47.8267 203.815 48.4133 203.303 49.224C202.813 50.0347 202.567 51.1227 202.567 52.488V61H200.007ZM233.292 42.056L233.868 44.328C233.846 44.328 233.814 44.328 233.772 44.328C233.729 44.328 233.686 44.328 233.644 44.328C232.598 44.328 231.788 44.5413 231.212 44.968C230.657 45.3733 230.38 46.0347 230.38 46.952L228.812 46.152C228.812 45.32 229.004 44.5947 229.388 43.976C229.772 43.3573 230.294 42.888 230.956 42.568C231.617 42.2267 232.342 42.056 233.132 42.056C233.153 42.056 233.174 42.056 233.196 42.056C233.238 42.056 233.27 42.056 233.292 42.056ZM228.428 58.952C229.942 58.952 231.126 59.304 231.98 60.008C232.833 60.6907 233.26 61.608 233.26 62.76C233.26 63.8053 232.908 64.712 232.204 65.48C231.521 66.248 230.593 66.8347 229.42 67.24C228.268 67.6667 226.966 67.88 225.516 67.88C222.998 67.88 221.11 67.4533 219.852 66.6C218.614 65.7467 217.996 64.7227 217.996 63.528C217.996 62.6747 218.273 61.9067 218.828 61.224C219.404 60.5627 220.364 60.1893 221.708 60.104L221.484 60.584C220.758 60.392 220.14 60.072 219.628 59.624C219.137 59.1547 218.892 58.4827 218.892 57.608C218.892 56.7333 219.212 55.9867 219.852 55.368C220.513 54.728 221.484 54.3333 222.764 54.184L224.46 55.048H224.14C223.094 55.1547 222.348 55.4213 221.9 55.848C221.473 56.2533 221.26 56.7013 221.26 57.192C221.26 57.7893 221.473 58.2373 221.9 58.536C222.348 58.8133 222.966 58.952 223.756 58.952H228.428ZM225.484 65.736C226.721 65.736 227.734 65.608 228.524 65.352C229.334 65.096 229.932 64.7653 230.316 64.36C230.7 63.9547 230.892 63.5173 230.892 63.048C230.892 62.472 230.657 62.0133 230.188 61.672C229.74 61.3307 228.918 61.16 227.724 61.16H222.796C222.113 61.16 221.537 61.3307 221.068 61.672C220.598 62.0347 220.364 62.5253 220.364 63.144C220.364 63.9333 220.812 64.5627 221.708 65.032C222.625 65.5013 223.884 65.736 225.484 65.736ZM225.26 44.68C226.54 44.68 227.67 44.9147 228.652 45.384C229.654 45.832 230.433 46.4613 230.988 47.272C231.542 48.0827 231.82 49.0213 231.82 50.088C231.82 51.1333 231.542 52.072 230.988 52.904C230.433 53.7147 229.654 54.3547 228.652 54.824C227.67 55.272 226.54 55.496 225.26 55.496C223.148 55.496 221.526 54.9947 220.396 53.992C219.265 52.968 218.7 51.6667 218.7 50.088C218.7 49.0213 218.977 48.0827 219.532 47.272C220.108 46.4613 220.886 45.832 221.868 45.384C222.849 44.9147 223.98 44.68 225.26 44.68ZM225.26 46.76C224.15 46.76 223.222 47.0693 222.476 47.688C221.729 48.2853 221.356 49.0853 221.356 50.088C221.356 51.0693 221.729 51.8693 222.476 52.488C223.222 53.1067 224.15 53.416 225.26 53.416C226.369 53.416 227.297 53.1067 228.044 52.488C228.79 51.8693 229.164 51.0693 229.164 50.088C229.164 49.0853 228.79 48.2853 228.044 47.688C227.297 47.0693 226.369 46.76 225.26 46.76ZM254.381 44.68C255.896 44.68 257.229 45.0107 258.381 45.672C259.555 46.3333 260.472 47.2933 261.133 48.552C261.795 49.7893 262.125 51.272 262.125 53C262.125 54.728 261.795 56.2213 261.133 57.48C260.472 58.7173 259.555 59.6667 258.381 60.328C257.229 60.9893 255.896 61.32 254.381 61.32C252.888 61.32 251.555 60.9893 250.381 60.328C249.208 59.6667 248.291 58.7173 247.629 57.48C246.968 56.2213 246.637 54.728 246.637 53C246.637 51.272 246.968 49.7893 247.629 48.552C248.291 47.2933 249.208 46.3333 250.381 45.672C251.555 45.0107 252.888 44.68 254.381 44.68ZM254.381 46.888C253.293 46.888 252.365 47.1333 251.597 47.624C250.829 48.1147 250.232 48.8187 249.805 49.736C249.4 50.632 249.197 51.72 249.197 53C249.197 54.2587 249.4 55.3467 249.805 56.264C250.232 57.1813 250.829 57.8853 251.597 58.376C252.365 58.8667 253.293 59.112 254.381 59.112C255.469 59.112 256.397 58.8667 257.165 58.376C257.933 57.8853 258.52 57.1813 258.925 56.264C259.352 55.3467 259.565 54.2587 259.565 53C259.565 51.72 259.352 50.632 258.925 49.736C258.52 48.8187 257.933 48.1147 257.165 47.624C256.397 47.1333 255.469 46.888 254.381 46.888ZM273.16 37.48C273.714 37.48 274.237 37.544 274.728 37.672C275.218 37.8 275.602 37.9813 275.88 38.216L275.208 40.296C274.952 40.1253 274.674 40.008 274.376 39.944C274.077 39.8587 273.746 39.816 273.384 39.816C272.466 39.816 271.752 40.04 271.24 40.488C270.728 40.9147 270.472 41.608 270.472 42.568V45V45.832V61H267.911V42.312C267.911 41.608 268.018 40.9573 268.232 40.36C268.445 39.7627 268.765 39.2507 269.192 38.824C269.64 38.3973 270.194 38.0667 270.856 37.832C271.517 37.5973 272.285 37.48 273.16 37.48ZM275.816 45V47.208H264.712V45H275.816ZM291.283 37.64V56.936C291.283 57.7467 291.432 58.312 291.731 58.632C292.03 58.9307 292.51 59.08 293.171 59.08C293.598 59.08 293.95 59.048 294.227 58.984C294.504 58.92 294.878 58.8027 295.347 58.632L294.931 60.872C294.59 61.0213 294.216 61.128 293.811 61.192C293.406 61.2773 292.99 61.32 292.563 61.32C291.262 61.32 290.291 60.968 289.651 60.264C289.032 59.56 288.723 58.4827 288.723 57.032V37.64H291.283ZM299.912 41.928C299.336 41.928 298.867 41.7573 298.504 41.416C298.163 41.0533 297.992 40.584 297.992 40.008C297.992 39.432 298.163 38.9733 298.504 38.632C298.867 38.2693 299.336 38.088 299.912 38.088C300.488 38.088 300.947 38.2693 301.288 38.632C301.651 38.9733 301.832 39.432 301.832 40.008C301.832 40.584 301.651 41.0533 301.288 41.416C300.947 41.7573 300.488 41.928 299.912 41.928ZM301.192 45V61H298.632V45H301.192ZM316.476 50.664C316.476 49.4693 316.156 48.552 315.516 47.912C314.876 47.2507 313.97 46.92 312.796 46.92C311.687 46.92 310.748 47.1653 309.98 47.656C309.212 48.1253 308.647 48.8933 308.284 49.96L306.204 48.68C306.631 47.4853 307.42 46.5253 308.572 45.8C309.724 45.0533 311.154 44.68 312.86 44.68C314.012 44.68 315.058 44.8827 315.996 45.288C316.935 45.672 317.671 46.2693 318.204 47.08C318.759 47.8693 319.036 48.8933 319.036 50.152V57.896C319.036 58.664 319.442 59.048 320.252 59.048C320.658 59.048 321.052 58.9947 321.436 58.888L321.308 60.904C320.882 61.1173 320.327 61.224 319.644 61.224C319.026 61.224 318.471 61.1067 317.98 60.872C317.49 60.6373 317.106 60.2853 316.828 59.816C316.551 59.3253 316.412 58.7173 316.412 57.992V57.672L317.052 57.768C316.796 58.6 316.359 59.2827 315.74 59.816C315.122 60.328 314.428 60.712 313.66 60.968C312.892 61.2027 312.135 61.32 311.388 61.32C310.45 61.32 309.575 61.16 308.764 60.84C307.954 60.52 307.303 60.04 306.812 59.4C306.343 58.7387 306.108 57.928 306.108 56.968C306.108 55.7733 306.503 54.792 307.292 54.024C308.103 53.2347 309.223 52.7013 310.652 52.424L316.988 51.176V53.288L311.836 54.344C310.791 54.5573 310.012 54.856 309.5 55.24C308.988 55.624 308.732 56.1573 308.732 56.84C308.732 57.5013 308.988 58.0453 309.5 58.472C310.034 58.8773 310.78 59.08 311.74 59.08C312.359 59.08 312.946 59.0053 313.5 58.856C314.076 58.6853 314.588 58.44 315.036 58.12C315.484 57.7787 315.836 57.3627 316.092 56.872C316.348 56.36 316.476 55.7627 316.476 55.08V50.664ZM325.257 61V45H327.497L327.721 48.584L327.305 48.232C327.647 47.3787 328.105 46.696 328.681 46.184C329.257 45.6507 329.919 45.2667 330.665 45.032C331.433 44.7973 332.223 44.68 333.033 44.68C334.185 44.68 335.231 44.904 336.169 45.352C337.108 45.7787 337.855 46.44 338.409 47.336C338.985 48.232 339.273 49.3733 339.273 50.76V61H336.713V51.656C336.713 49.8853 336.329 48.6587 335.561 47.976C334.815 47.272 333.887 46.92 332.777 46.92C332.009 46.92 331.241 47.1013 330.473 47.464C329.705 47.8267 329.065 48.4133 328.553 49.224C328.063 50.0347 327.817 51.1227 327.817 52.488V61H325.257ZM354.414 50.664C354.414 49.4693 354.094 48.552 353.454 47.912C352.814 47.2507 351.907 46.92 350.734 46.92C349.624 46.92 348.686 47.1653 347.918 47.656C347.15 48.1253 346.584 48.8933 346.222 49.96L344.142 48.68C344.568 47.4853 345.358 46.5253 346.51 45.8C347.662 45.0533 349.091 44.68 350.798 44.68C351.95 44.68 352.995 44.8827 353.934 45.288C354.872 45.672 355.608 46.2693 356.142 47.08C356.696 47.8693 356.974 48.8933 356.974 50.152V57.896C356.974 58.664 357.379 59.048 358.19 59.048C358.595 59.048 358.99 58.9947 359.374 58.888L359.246 60.904C358.819 61.1173 358.264 61.224 357.582 61.224C356.963 61.224 356.408 61.1067 355.918 60.872C355.427 60.6373 355.043 60.2853 354.766 59.816C354.488 59.3253 354.35 58.7173 354.35 57.992V57.672L354.99 57.768C354.734 58.6 354.296 59.2827 353.678 59.816C353.059 60.328 352.366 60.712 351.598 60.968C350.83 61.2027 350.072 61.32 349.326 61.32C348.387 61.32 347.512 61.16 346.702 60.84C345.891 60.52 345.24 60.04 344.75 59.4C344.28 58.7387 344.046 57.928 344.046 56.968C344.046 55.7733 344.44 54.792 345.23 54.024C346.04 53.2347 347.16 52.7013 348.59 52.424L354.926 51.176V53.288L349.774 54.344C348.728 54.5573 347.95 54.856 347.438 55.24C346.926 55.624 346.67 56.1573 346.67 56.84C346.67 57.5013 346.926 58.0453 347.438 58.472C347.971 58.8773 348.718 59.08 349.678 59.08C350.296 59.08 350.883 59.0053 351.438 58.856C352.014 58.6853 352.526 58.44 352.974 58.12C353.422 57.7787 353.774 57.3627 354.03 56.872C354.286 56.36 354.414 55.7627 354.414 55.08V50.664ZM376.936 64.104V66.504H359.688V64.104H376.936ZM399.478 45H402.326L396.758 61H394.198L389.686 48.264L385.43 61H382.87L377.302 45H380.15L384.182 58.024L388.534 45H391.094L395.446 58.024L399.478 45ZM412.352 61.32C410.837 61.32 409.482 60.9893 408.288 60.328C407.114 59.6667 406.197 58.7173 405.536 57.48C404.874 56.2213 404.544 54.728 404.544 53C404.544 51.272 404.874 49.7893 405.536 48.552C406.197 47.2933 407.104 46.3333 408.256 45.672C409.408 45.0107 410.72 44.68 412.192 44.68C413.685 44.68 414.954 45 416 45.64C417.066 46.28 417.877 47.1547 418.432 48.264C418.986 49.352 419.264 50.5787 419.264 51.944C419.264 52.3067 419.253 52.6373 419.232 52.936C419.21 53.2347 419.178 53.5013 419.135 53.736H406.208V51.464H418.016L416.704 51.72C416.704 50.184 416.277 49 415.424 48.168C414.592 47.336 413.493 46.92 412.128 46.92C411.082 46.92 410.176 47.1653 409.408 47.656C408.661 48.1253 408.074 48.8187 407.648 49.736C407.242 50.632 407.04 51.72 407.04 53C407.04 54.2587 407.253 55.3467 407.68 56.264C408.106 57.1813 408.704 57.8853 409.472 58.376C410.261 58.8453 411.2 59.08 412.288 59.08C413.461 59.08 414.41 58.856 415.136 58.408C415.882 57.96 416.48 57.352 416.928 56.584L418.944 57.768C418.538 58.4933 418.016 59.1227 417.376 59.656C416.757 60.1893 416.021 60.6053 415.168 60.904C414.336 61.1813 413.397 61.32 412.352 61.32ZM431.972 61.32C431.076 61.32 430.244 61.16 429.476 60.84C428.708 60.52 428.047 60.072 427.492 59.496C426.938 58.92 426.522 58.2693 426.244 57.544L426.596 57.096L426.372 61H424.132V37.64H426.692V48.616L426.372 48.136C426.799 47.1333 427.514 46.312 428.516 45.672C429.54 45.0107 430.703 44.68 432.004 44.68C433.327 44.68 434.543 45.0107 435.652 45.672C436.762 46.3333 437.647 47.2827 438.308 48.52C438.97 49.7573 439.3 51.2507 439.3 53C439.3 54.728 438.959 56.2213 438.276 57.48C437.615 58.7173 436.73 59.6667 435.62 60.328C434.511 60.9893 433.295 61.32 431.972 61.32ZM431.716 59.08C433.295 59.08 434.522 58.5253 435.396 57.416C436.292 56.3067 436.74 54.8347 436.74 53C436.74 51.1653 436.303 49.6933 435.428 48.584C434.554 47.4747 433.327 46.92 431.748 46.92C430.746 46.92 429.86 47.176 429.092 47.688C428.346 48.2 427.759 48.9147 427.332 49.832C426.906 50.7493 426.692 51.8267 426.692 53.064C426.692 54.28 426.895 55.3467 427.3 56.264C427.727 57.16 428.314 57.8533 429.06 58.344C429.828 58.8347 430.714 59.08 431.716 59.08Z" fill="black"/>
<circle cx="61.5" cy="137.5" r="61.5" fill="#F1F1F1"/>
<g filter="url(#filter0_d_642_410)">
<circle cx="61.5" cy="137.5" r="31.5" fill="#00FFA3"/>
</g>
<path d="M0 7H62V130" stroke="#00FFA3" stroke-width="12"/>
<defs>
<filter id="filter0_d_642_410" x="5" y="81" width="113" height="113" filterUnits="userSpaceOnUse" color-interpolation-filters="sRGB">
<feFlood flood-opacity="0" result="BackgroundImageFix"/>
<feColorMatrix in="SourceAlpha" type="matrix" values="0 0 0 0 0 0 0 0 0 0 0 0 0 0 0 0 0 0 127 0" result="hardAlpha"/>
<feOffset/>
<feGaussianBlur stdDeviation="12.5"/>
<feComposite in2="hardAlpha" operator="out"/>
<feColorMatrix type="matrix" values="0 0 0 0 0 0 0 0 0 1 0 0 0 0 0.64 0 0 0 1 0"/>
<feBlend mode="normal" in2="BackgroundImageFix" result="effect1_dropShadow_642_410"/>
<feBlend mode="normal" in="SourceGraphic" in2="effect1_dropShadow_642_410" result="shape"/>
</filter>
</defs>
</svg>
